<svg xmlns="http://www.w3.org/2000/svg" width="787.585" height="295.022" viewBox="0 0 787.585 295.022">
  <g id="Group_25" data-name="Group 25" transform="translate(-639 -329)">
    <text id="thebridge." transform="translate(639 540)" fill="#fff" font-size="182" font-family="Poppins-ExtraLight, Poppins" font-weight="200" letter-spacing="-0.08em"><tspan x="0" y="0">th</tspan><tspan y="0" letter-spacing="-0.1em">e</tspan><tspan y="0" font-family="Poppins-SemiBold, Poppins" font-weight="600" letter-spacing="-0.1em">b</tspan><tspan y="0" font-family="Poppins-SemiBold, Poppins" font-weight="600">rid</tspan><tspan y="0" font-family="SourceHanSansKR-Medium, Source Han Sans KR" font-weight="500">ge.</tspan></text>
    <rect id="Rectangle_17" data-name="Rectangle 17" width="9" height="7.3" transform="translate(695 532.7)" fill="#fff"/>
    <path id="Subtraction_3" data-name="Subtraction 3" d="M0,202.2v0C27.924,177,45.271,129.942,45.271,79.38c0-28.469-5.355-55.918-15.485-79.38a110.491,110.491,0,0,1,13.45,18.1A127.911,127.911,0,0,1,53.471,39.645a142.225,142.225,0,0,1,6.514,24.313A152.848,152.848,0,0,1,62.27,90.38a150.356,150.356,0,0,1-4.648,37.374,132.737,132.737,0,0,1-12.937,32.411,108.334,108.334,0,0,1-19.713,25.473A84.139,84.139,0,0,1,0,202.2Z" transform="matrix(0.017, -1, 1, 0.017, 1223.333, 455.366)" fill="#fff"/>
    <path id="Subtraction_4" data-name="Subtraction 4" d="M0,0V0C27.924,35.039,45.271,100.485,45.271,170.8c0,39.592-5.355,77.766-15.485,110.394a160.88,160.88,0,0,0,13.45-25.178,214.882,214.882,0,0,0,10.236-29.957,261.576,261.576,0,0,0,6.514-33.813A293.761,293.761,0,0,0,62.27,155.5a287.037,287.037,0,0,0-4.648-51.976A231.078,231.078,0,0,0,44.685,58.454,154.927,154.927,0,0,0,24.972,23.029C17.334,13,8.933,5.247,0,0Z" transform="matrix(-0.105, 0.995, -0.995, -0.105, 1156.165, 562.093)" fill="#fff"/>
  </g>
</svg>
